<svg width="33" height="32" viewBox="0 0 33 32" fill="none" xmlns="http://www.w3.org/2000/svg">
<path d="M26.6804 4H23.6804V3C23.6804 2.73478 23.5751 2.48043 23.3875 2.29289C23.2 2.10536 22.9456 2 22.6804 2C22.4152 2 22.1608 2.10536 21.9733 2.29289C21.7858 2.48043 21.6804 2.73478 21.6804 3V4H11.6804V3C11.6804 2.73478 11.5751 2.48043 11.3875 2.29289C11.2 2.10536 10.9456 2 10.6804 2C10.4152 2 10.1608 2.10536 9.97331 2.29289C9.78578 2.48043 9.68042 2.73478 9.68042 3V4H6.68042C6.14999 4 5.64128 4.21071 5.26621 4.58579C4.89113 4.96086 4.68042 5.46957 4.68042 6V26C4.68042 26.5304 4.89113 27.0391 5.26621 27.4142C5.64128 27.7893 6.14999 28 6.68042 28H26.6804C27.2109 28 27.7196 27.7893 28.0946 27.4142C28.4697 27.0391 28.6804 26.5304 28.6804 26V6C28.6804 5.46957 28.4697 4.96086 28.0946 4.58579C27.7196 4.21071 27.2109 4 26.6804 4ZM9.68042 6V7C9.68042 7.26522 9.78578 7.51957 9.97331 7.70711C10.1608 7.89464 10.4152 8 10.6804 8C10.9456 8 11.2 7.89464 11.3875 7.70711C11.5751 7.51957 11.6804 7.26522 11.6804 7V6H21.6804V7C21.6804 7.26522 21.7858 7.51957 21.9733 7.70711C22.1608 7.89464 22.4152 8 22.6804 8C22.9456 8 23.2 7.89464 23.3875 7.70711C23.5751 7.51957 23.6804 7.26522 23.6804 7V6H26.6804V10H6.68042V6H9.68042ZM26.6804 26H6.68042V12H26.6804V26Z" fill="#F7F4F3"/>
</svg>
