<svg width="25" height="24" viewBox="0 0 25 24" fill="none" xmlns="http://www.w3.org/2000/svg">
<g id="Star 4">
<path id="Star 1" d="M11.8576 2.91538C12.1093 2.14075 13.2052 2.14075 13.4569 2.91538L15.1113 8.00697C15.2238 8.35339 15.5467 8.58794 15.9109 8.58794L21.2645 8.58794C22.079 8.58794 22.4177 9.6302 21.7587 10.1089L17.4276 13.2557C17.1329 13.4698 17.0096 13.8493 17.1221 14.1958L18.7765 19.2873C19.0282 20.062 18.1416 20.7061 17.4827 20.2274L13.1515 17.0806C12.8568 16.8665 12.4578 16.8665 12.1631 17.0806L7.83191 20.2274C7.17297 20.7061 6.28638 20.062 6.53807 19.2873L8.19243 14.1958C8.30499 13.8493 8.18168 13.4698 7.88699 13.2557L3.55583 10.1089C2.89689 9.6302 3.23554 8.58794 4.05003 8.58794L9.40365 8.58794C9.7679 8.58794 10.0907 8.35339 10.2033 8.00697L11.8576 2.91538Z" fill="#FF8598"/>
</g>
</svg>
