<svg width="24" height="24" viewBox="0 0 24 24" fill="none" xmlns="http://www.w3.org/2000/svg">
<g id="Star 5" opacity="0.5">
<path id="Star 1" d="M11.3996 2.91538C11.6513 2.14075 12.7472 2.14075 12.9989 2.91538L14.6533 8.00697C14.7658 8.35339 15.0887 8.58794 15.4529 8.58794L20.8065 8.58794C21.621 8.58794 21.9597 9.6302 21.3007 10.1089L16.9696 13.2557C16.6749 13.4698 16.5516 13.8493 16.6641 14.1958L18.3185 19.2873C18.5702 20.062 17.6836 20.7061 17.0246 20.2274L12.6935 17.0806C12.3988 16.8665 11.9998 16.8665 11.7051 17.0806L7.3739 20.2274C6.71497 20.7061 5.82837 20.062 6.08006 19.2873L7.73442 14.1958C7.84698 13.8493 7.72367 13.4698 7.42898 13.2557L3.09782 10.1089C2.43888 9.6302 2.77753 8.58794 3.59202 8.58794L8.94564 8.58794C9.30989 8.58794 9.63272 8.35339 9.74528 8.00697L11.3996 2.91538Z" fill="#FF8598"/>
</g>
</svg>
